{"glyphs":{":":{"x_min":0,"x_max":186,"ha":186,"o":"m 40 106 l 40 0 l 146 0 l 146 106 z m 40 487 l 40 381 l 146 381 l 146 487 z"},"$":{"x_min":0,"x_max":396,"ha":396,"o":"m 37 522 b 37 322 252 315 252 171 b 252 121 230 103 195 103 b 160 103 138 121 138 171 l 138 226 l 34 226 l 34 178 b 34 83 74 22 153 6 l 153 -45 l 243 -45 l 243 6 b 321 22 362 83 362 178 b 362 378 147 385 147 529 b 147 579 167 598 202 598 b 237 598 257 579 257 529 l 257 500 l 361 500 l 361 522 b 361 617 321 677 243 693 l 243 745 l 153 745 l 153 693 b 76 676 37 616 37 522 z"},"?":{"x_min":0,"x_max":360,"ha":360,"o":"m 218 155 b 215 168 214 181 214 194 b 214 322 344 350 344 532 b 344 644 289 708 182 708 b 75 708 20 644 20 532 l 20 463 l 124 463 l 124 539 b 124 589 144 608 179 608 b 214 608 234 589 234 539 b 234 365 114 351 114 198 b 114 180 116 167 120 155 z m 115 106 l 115 0 l 221 0 l 221 106 z"},"<":{"x_min":0,"x_max":396,"ha":396,"o":"m 356 191 l 356 270 l 132 350 l 356 430 l 356 509 l 30 389 l 30 311 z"},"'":{"x_min":0,"x_max":180,"ha":180,"o":"m 52 494 l 127 494 l 143 700 l 37 700 z"},"=":{"x_min":0,"x_max":396,"ha":396,"o":"m 35 308 l 35 230 l 361 230 l 361 308 z m 35 470 l 35 392 l 361 392 l 361 470 z"},"a":{"x_min":0,"x_max":407,"ha":407,"o":"m 284 700 l 123 700 l 11 0 l 112 0 l 131 127 l 266 127 l 285 0 l 396 0 z m 198 576 l 251 222 l 145 222 z"},"L":{"x_min":0,"x_max":339,"ha":339,"o":"m 40 0 l 331 0 l 331 100 l 150 100 l 150 700 l 40 700 z"},"3":{"x_min":0,"x_max":396,"ha":396,"o":"m 252 489 b 252 433 227 415 186 415 l 143 415 l 143 315 l 180 315 b 230 315 252 291 252 226 l 252 171 b 252 109 230 92 195 92 b 160 92 138 111 138 161 l 138 226 l 34 226 l 34 168 b 34 56 90 -8 198 -8 b 306 -8 362 56 362 168 l 362 223 b 362 294 340 346 285 370 b 338 392 362 439 362 514 l 362 532 b 362 644 306 708 198 708 b 90 708 34 644 34 532 l 34 494 l 138 494 l 138 539 b 138 589 160 608 195 608 b 230 608 252 591 252 528 z"},";":{"x_min":0,"x_max":186,"ha":186,"o":"m 82 0 l 53 -100 l 98 -100 l 146 11 l 146 106 l 40 106 l 40 0 z m 40 487 l 40 381 l 146 381 l 146 487 z"},"J":{"x_min":0,"x_max":256,"ha":256,"o":"m 10 0 b 28 -2 43 -2 63 -2 b 146 -2 221 34 221 174 l 221 700 l 111 700 l 111 166 b 111 112 83 99 48 99 b 36 99 22 99 10 100 z"},"V":{"x_min":0,"x_max":402,"ha":402,"o":"m 122 700 l 11 700 l 119 0 l 283 0 l 391 700 l 290 700 l 206 129 z"},"\"":{"x_min":0,"x_max":325,"ha":325,"o":"m 55 494 l 130 494 l 146 700 l 40 700 z m 194 494 l 269 494 l 285 700 l 179 700 z"},"7":{"x_min":0,"x_max":396,"ha":396,"o":"m 33 700 l 33 600 l 252 600 l 91 0 l 201 0 l 363 604 l 363 700 z"},"S":{"x_min":0,"x_max":374,"ha":374,"o":"m 26 532 b 26 332 241 305 241 161 b 241 111 219 93 184 93 b 149 93 127 111 127 161 l 127 211 l 23 211 l 23 168 b 23 56 79 -8 187 -8 b 295 -8 351 56 351 168 b 351 368 136 395 136 539 b 136 589 156 608 191 608 b 226 608 246 589 246 539 l 246 510 l 350 510 l 350 532 b 350 644 295 708 188 708 b 81 708 26 644 26 532 z"},"}":{"x_min":0,"x_max":257,"ha":257,"o":"m 155 350 b 104 337 92 298 90 261 l 85 161 b 82 106 67 90 32 90 l 16 90 l 16 0 l 72 0 b 134 0 178 35 183 111 l 191 245 b 194 291 204 305 246 305 l 246 395 b 204 395 194 409 191 455 l 183 589 b 178 665 134 700 72 700 l 16 700 l 16 610 l 32 610 b 67 610 82 594 85 539 l 90 439 b 92 402 104 363 155 350 z"},"Z":{"x_min":0,"x_max":370,"ha":370,"o":"m 33 700 l 33 600 l 232 600 l 23 98 l 23 0 l 345 0 l 345 100 l 136 100 l 345 602 l 345 700 z"},"x":{"x_min":0,"x_max":430,"ha":430,"o":"m 305 700 l 220 442 l 137 700 l 23 700 l 138 360 l 15 0 l 118 0 l 209 277 l 299 0 l 415 0 l 292 360 l 407 700 z"},")":{"x_min":0,"x_max":251,"ha":251,"o":"m 16 700 l 16 610 l 43 610 b 78 610 94 597 94 547 l 94 153 b 94 103 78 90 43 90 l 16 90 l 16 0 l 50 0 b 160 0 204 41 204 153 l 204 547 b 204 659 160 700 50 700 z"},"&":{"x_min":0,"x_max":414,"ha":414,"o":"m 41 223 l 41 152 b 41 49 82 -8 163 -8 b 212 -8 246 14 265 55 b 267 24 270 14 275 0 l 387 0 b 376 26 375 51 375 85 l 375 315 l 404 315 l 404 415 l 375 415 l 375 493 l 265 493 l 265 415 l 217 415 b 176 415 151 433 151 489 l 151 532 b 151 582 172 600 207 600 l 331 600 l 331 700 l 205 700 b 95 700 41 639 41 527 l 41 514 b 41 439 65 392 117 370 b 63 346 41 294 41 223 z m 151 161 l 151 226 b 151 291 173 315 223 315 l 265 315 l 265 153 b 263 109 241 92 208 92 b 173 92 151 111 151 161 z"},"_":{"x_min":0,"x_max":500,"ha":500,"o":"m 0 -90 l 500 -90 l 500 -10 l 0 -10 z"},"v":{"x_min":0,"x_max":402,"ha":402,"o":"m 122 700 l 11 700 l 119 0 l 283 0 l 391 700 l 290 700 l 206 129 z"},"O":{"x_min":0,"x_max":396,"ha":396,"o":"m 141 539 b 141 589 163 608 198 608 b 233 608 255 589 255 539 l 255 161 b 255 111 233 92 198 92 b 163 92 141 111 141 161 z m 31 168 b 31 56 90 -8 198 -8 b 306 -8 365 56 365 168 l 365 532 b 365 644 306 708 198 708 b 90 708 31 644 31 532 z"},"(":{"x_min":0,"x_max":251,"ha":251,"o":"m 201 700 b 91 700 47 659 47 547 l 47 153 b 47 41 91 0 201 0 l 235 0 l 235 90 l 208 90 b 173 90 157 103 157 153 l 157 547 b 157 597 173 610 208 610 l 235 610 l 235 700 z"},"C":{"x_min":0,"x_max":386,"ha":386,"o":"m 255 261 l 255 161 b 255 111 233 93 198 93 b 163 93 141 111 141 161 l 141 539 b 141 589 163 608 198 608 b 233 608 255 589 255 539 l 255 464 l 359 464 l 359 532 b 359 644 303 708 195 708 b 87 708 31 644 31 532 l 31 168 b 31 56 87 -8 195 -8 b 303 -8 359 56 359 168 l 359 261 z"},"W":{"x_min":0,"x_max":563,"ha":563,"o":"m 324 0 l 470 0 l 548 700 l 452 700 l 395 144 l 340 700 l 234 700 l 181 148 l 122 700 l 15 700 l 93 0 l 244 0 l 284 373 z"},"A":{"x_min":0,"x_max":407,"ha":407,"o":"m 284 700 l 123 700 l 11 0 l 112 0 l 131 127 l 266 127 l 285 0 l 396 0 z m 198 576 l 251 222 l 145 222 z"},"f":{"x_min":0,"x_max":344,"ha":344,"o":"m 150 600 l 331 600 l 331 700 l 40 700 l 40 0 l 150 0 l 150 289 l 292 289 l 292 389 l 150 389 z"},"Q":{"x_min":0,"x_max":396,"ha":396,"o":"m 31 168 b 31 56 90 -8 198 -8 b 227 -8 253 -3 275 5 b 290 -25 321 -43 370 -43 l 385 -43 l 385 55 l 375 55 b 357 55 349 57 344 70 b 358 96 365 129 365 168 l 365 532 b 365 644 306 708 198 708 b 90 708 31 644 31 532 z m 141 539 b 141 589 163 608 198 608 b 233 608 255 589 255 539 l 255 161 b 255 111 233 92 198 92 b 163 92 141 111 141 161 z"},"w":{"x_min":0,"x_max":563,"ha":563,"o":"m 324 0 l 470 0 l 548 700 l 452 700 l 395 144 l 340 700 l 234 700 l 181 148 l 122 700 l 15 700 l 93 0 l 244 0 l 284 373 z"},"-":{"x_min":0,"x_max":270,"ha":270,"o":"m 35 300 l 235 300 l 235 400 l 35 400 z"},"E":{"x_min":0,"x_max":368,"ha":368,"o":"m 150 600 l 340 600 l 340 700 l 40 700 l 40 0 l 340 0 l 340 100 l 150 100 l 150 305 l 301 305 l 301 405 l 150 405 z"},"s":{"x_min":0,"x_max":374,"ha":374,"o":"m 26 532 b 26 332 241 305 241 161 b 241 111 219 93 184 93 b 149 93 127 111 127 161 l 127 211 l 23 211 l 23 168 b 23 56 79 -8 187 -8 b 295 -8 351 56 351 168 b 351 368 136 395 136 539 b 136 589 156 608 191 608 b 226 608 246 589 246 539 l 246 510 l 350 510 l 350 532 b 350 644 295 708 188 708 b 81 708 26 644 26 532 z"},">":{"x_min":0,"x_max":396,"ha":396,"o":"m 366 311 l 366 389 l 40 509 l 40 430 l 264 350 l 40 270 l 40 191 z"},"l":{"x_min":0,"x_max":339,"ha":339,"o":"m 40 0 l 331 0 l 331 100 l 150 100 l 150 700 l 40 700 z"},"8":{"x_min":0,"x_max":396,"ha":396,"o":"m 370 168 l 370 223 b 370 290 350 342 302 369 b 347 394 370 441 370 510 l 370 532 b 370 644 309 708 198 708 b 87 708 26 644 26 532 l 26 510 b 26 441 48 394 94 369 b 46 342 26 290 26 223 l 26 168 b 26 56 87 -8 198 -8 b 309 -8 370 56 370 168 z m 136 171 l 136 236 b 136 291 159 315 198 315 b 237 315 260 291 260 236 l 260 171 b 259 109 233 92 198 92 b 163 92 136 109 136 171 z m 136 528 b 136 591 163 608 198 608 b 233 608 260 591 260 528 l 260 489 b 260 433 233 415 198 415 b 162 415 136 433 136 489 z"},"\\":{"x_min":0,"x_max":381,"ha":381,"o":"m 100 700 l 5 700 l 281 0 l 376 0 z"},"e":{"x_min":0,"x_max":368,"ha":368,"o":"m 150 600 l 340 600 l 340 700 l 40 700 l 40 0 l 340 0 l 340 100 l 150 100 l 150 305 l 301 305 l 301 405 l 150 405 z"},"b":{"x_min":0,"x_max":406,"ha":406,"o":"m 206 700 l 40 700 l 40 0 l 213 0 b 323 0 380 58 380 166 l 380 223 b 380 297 357 350 298 373 b 347 396 369 442 369 514 l 369 539 b 369 647 320 700 206 700 z m 199 315 b 249 315 270 295 270 230 l 270 169 b 270 117 250 100 213 100 l 150 100 l 150 315 z m 203 600 b 242 600 259 578 259 528 l 259 489 b 259 433 234 415 193 415 l 150 415 l 150 600 z"},"%":{"x_min":0,"x_max":627,"ha":627,"o":"m 104 598 b 104 629 117 642 140 642 b 162 642 176 629 176 598 l 176 358 b 176 327 162 314 140 314 b 117 314 104 327 104 358 z m 34 363 b 34 291 71 251 140 251 b 209 251 246 291 246 363 l 246 593 b 246 665 209 705 140 705 b 71 705 34 665 34 593 z m 140 0 l 205 0 l 481 700 l 416 700 z m 451 342 b 451 373 464 386 487 386 b 509 386 523 373 523 342 l 523 102 b 523 71 509 58 487 58 b 464 58 451 71 451 102 z m 381 107 b 381 35 418 -5 487 -5 b 556 -5 593 35 593 107 l 593 337 b 593 409 556 449 487 449 b 418 449 381 409 381 337 z"},"m":{"x_min":0,"x_max":541,"ha":541,"o":"m 192 700 l 39 700 l 39 0 l 135 0 l 135 495 l 217 0 l 321 0 l 397 502 l 397 0 l 501 0 l 501 700 l 348 700 l 273 203 z"},"#":{"x_min":0,"x_max":410,"ha":410,"o":"m 198 0 l 288 0 l 309 200 l 360 200 l 368 278 l 317 278 l 336 461 l 387 461 l 395 539 l 344 539 l 361 700 l 271 700 l 254 539 l 189 539 l 206 700 l 116 700 l 99 539 l 49 539 l 41 461 l 91 461 l 72 278 l 23 278 l 15 200 l 64 200 l 43 0 l 133 0 l 154 200 l 219 200 z m 181 461 l 246 461 l 227 278 l 162 278 z"},",":{"x_min":0,"x_max":186,"ha":186,"o":"m 82 0 l 53 -100 l 98 -100 l 146 11 l 146 106 l 40 106 l 40 0 z"},"n":{"x_min":0,"x_max":427,"ha":427,"o":"m 275 0 l 388 0 l 388 700 l 290 700 l 290 281 l 177 700 l 39 700 l 39 0 l 138 0 l 138 507 z"},"h":{"x_min":0,"x_max":427,"ha":427,"o":"m 150 300 l 275 300 l 275 0 l 387 0 l 387 700 l 275 700 l 275 400 l 150 400 l 150 700 l 40 700 l 40 0 l 150 0 z"},"z":{"x_min":0,"x_max":370,"ha":370,"o":"m 33 700 l 33 600 l 232 600 l 23 98 l 23 0 l 345 0 l 345 100 l 136 100 l 345 602 l 345 700 z"},"B":{"x_min":0,"x_max":406,"ha":406,"o":"m 206 700 l 40 700 l 40 0 l 213 0 b 323 0 380 58 380 166 l 380 223 b 380 297 357 350 298 373 b 347 396 369 442 369 514 l 369 539 b 369 647 320 700 206 700 z m 199 315 b 249 315 270 295 270 230 l 270 169 b 270 117 250 100 213 100 l 150 100 l 150 315 z m 203 600 b 242 600 259 578 259 528 l 259 489 b 259 433 234 415 193 415 l 150 415 l 150 600 z"},"K":{"x_min":0,"x_max":414,"ha":414,"o":"m 291 0 l 404 0 l 251 388 l 404 700 l 294 700 l 150 395 l 150 700 l 40 700 l 40 0 l 150 0 l 150 215 l 184 279 z"},"R":{"x_min":0,"x_max":402,"ha":402,"o":"m 382 0 b 371 26 370 51 370 85 l 370 193 b 370 266 352 319 297 342 b 346 365 369 412 369 484 l 369 539 b 369 647 320 700 206 700 l 40 700 l 40 0 l 150 0 l 150 285 l 188 285 b 238 285 260 261 260 196 l 260 86 b 260 29 264 18 270 0 z m 203 600 b 242 600 259 578 259 528 l 259 459 b 259 403 234 385 193 385 l 150 385 l 150 600 z"},"T":{"x_min":0,"x_max":356,"ha":356,"o":"m 8 600 l 123 600 l 123 0 l 233 0 l 233 600 l 348 600 l 348 700 l 8 700 z"},"P":{"x_min":0,"x_max":377,"ha":377,"o":"m 202 700 l 40 700 l 40 0 l 150 0 l 150 263 l 202 263 b 312 263 366 324 366 436 l 366 527 b 366 639 312 700 202 700 z m 202 600 b 237 600 256 584 256 534 l 256 429 b 256 379 237 363 202 363 l 150 363 l 150 600 z"},"|":{"x_min":0,"x_max":500,"ha":500,"o":"m 210 -65 l 300 -65 l 300 765 l 210 765 z"},"t":{"x_min":0,"x_max":356,"ha":356,"o":"m 8 600 l 123 600 l 123 0 l 233 0 l 233 600 l 348 600 l 348 700 l 8 700 z"},"M":{"x_min":0,"x_max":541,"ha":541,"o":"m 192 700 l 39 700 l 39 0 l 135 0 l 135 495 l 217 0 l 321 0 l 397 502 l 397 0 l 501 0 l 501 700 l 348 700 l 273 203 z"},"g":{"x_min":0,"x_max":390,"ha":390,"o":"m 205 290 l 255 290 l 255 161 b 255 111 233 93 198 93 b 163 93 141 111 141 161 l 141 539 b 141 589 163 608 198 608 b 233 608 255 589 255 539 l 255 464 l 359 464 l 359 532 b 359 644 303 708 195 708 b 87 708 31 644 31 532 l 31 168 b 31 56 87 -8 195 -8 b 303 -8 359 56 359 168 l 359 390 l 205 390 z"},"j":{"x_min":0,"x_max":256,"ha":256,"o":"m 10 0 b 28 -2 43 -2 63 -2 b 146 -2 221 34 221 174 l 221 700 l 111 700 l 111 166 b 111 112 83 99 48 99 b 36 99 22 99 10 100 z"},"i":{"x_min":0,"x_max":190,"ha":190,"o":"m 40 0 l 150 0 l 150 700 l 40 700 z"},"y":{"x_min":0,"x_max":396,"ha":396,"o":"m 143 0 l 253 0 l 253 232 l 392 700 l 287 700 l 203 381 l 119 700 l 4 700 l 143 232 z"},"@":{"x_min":0,"x_max":689,"ha":689,"o":"m 476 127 b 553 127 671 200 671 446 b 671 608 604 740 393 740 b 146 740 24 537 24 290 b 24 83 120 -60 345 -60 b 419 -60 484 -48 550 -4 l 558 92 b 488 38 425 24 351 24 b 192 24 118 124 118 285 b 118 513 211 655 389 655 b 528 655 588 569 588 444 b 588 342 564 218 508 218 b 492 218 486 226 488 243 l 518 532 l 422 532 l 416 474 b 403 513 376 535 334 536 b 264 539 222 486 212 388 l 201 287 b 191 190 221 135 291 133 b 335 131 368 152 388 193 b 392 146 425 127 476 127 z m 307 377 b 312 424 333 441 364 440 b 391 440 411 423 407 384 l 397 289 b 392 243 371 225 341 226 b 310 227 293 246 298 292 z"},".":{"x_min":0,"x_max":186,"ha":186,"o":"m 40 106 l 40 0 l 146 0 l 146 106 z"},"p":{"x_min":0,"x_max":377,"ha":377,"o":"m 202 700 l 40 700 l 40 0 l 150 0 l 150 263 l 202 263 b 312 263 366 324 366 436 l 366 527 b 366 639 312 700 202 700 z m 202 600 b 237 600 256 584 256 534 l 256 429 b 256 379 237 363 202 363 l 150 363 l 150 600 z"},"X":{"x_min":0,"x_max":430,"ha":430,"o":"m 305 700 l 220 442 l 137 700 l 23 700 l 138 360 l 15 0 l 118 0 l 209 277 l 299 0 l 415 0 l 292 360 l 407 700 z"},"*":{"x_min":0,"x_max":396,"ha":396,"o":"m 30 610 l 2 525 l 166 497 l 49 380 l 121 327 l 198 475 l 275 327 l 347 380 l 230 497 l 394 525 l 366 610 l 217 535 l 243 700 l 153 700 l 179 535 z"},"Y":{"x_min":0,"x_max":396,"ha":396,"o":"m 143 0 l 253 0 l 253 232 l 392 700 l 287 700 l 203 381 l 119 700 l 4 700 l 143 232 z"},"c":{"x_min":0,"x_max":386,"ha":386,"o":"m 255 261 l 255 161 b 255 111 233 93 198 93 b 163 93 141 111 141 161 l 141 539 b 141 589 163 608 198 608 b 233 608 255 589 255 539 l 255 464 l 359 464 l 359 532 b 359 644 303 708 195 708 b 87 708 31 644 31 532 l 31 168 b 31 56 87 -8 195 -8 b 303 -8 359 56 359 168 l 359 261 z"},"!":{"x_min":0,"x_max":190,"ha":190,"o":"m 136 155 l 150 408 l 150 700 l 40 700 l 40 408 l 54 155 z m 42 106 l 42 0 l 148 0 l 148 106 z"},"/":{"x_min":0,"x_max":381,"ha":381,"o":"m 5 0 l 100 0 l 376 700 l 281 700 z"},"[":{"x_min":0,"x_max":251,"ha":251,"o":"m 47 0 l 229 0 l 229 90 l 157 90 l 157 610 l 229 610 l 229 700 l 47 700 z"},"6":{"x_min":0,"x_max":396,"ha":396,"o":"m 33 168 b 33 56 92 -8 200 -8 b 308 -8 367 56 367 168 l 367 296 b 367 399 326 456 245 456 b 196 456 162 434 143 394 l 143 522 b 143 589 165 608 204 608 b 239 608 261 589 261 539 l 261 514 l 365 514 l 365 532 b 365 644 309 708 201 708 b 87 708 33 644 33 526 z m 200 356 b 235 356 257 337 257 287 l 257 161 b 257 111 235 93 200 93 b 165 93 143 111 143 161 l 143 287 b 143 337 165 356 200 356 z"},"r":{"x_min":0,"x_max":402,"ha":402,"o":"m 382 0 b 371 26 370 51 370 85 l 370 193 b 370 266 352 319 297 342 b 346 365 369 412 369 484 l 369 539 b 369 647 320 700 206 700 l 40 700 l 40 0 l 150 0 l 150 285 l 188 285 b 238 285 260 261 260 196 l 260 86 b 260 29 264 18 270 0 z m 203 600 b 242 600 259 578 259 528 l 259 459 b 259 403 234 385 193 385 l 150 385 l 150 600 z"},"2":{"x_min":0,"x_max":396,"ha":396,"o":"m 258 528 b 258 326 40 292 40 86 l 40 0 l 358 0 l 358 100 l 150 100 b 149 105 149 110 149 115 b 149 230 368 312 368 532 b 368 644 312 708 204 708 b 96 708 40 644 40 532 l 40 464 l 144 464 l 144 539 b 144 589 166 608 201 608 b 236 608 258 591 258 528 z"},"{":{"x_min":0,"x_max":257,"ha":257,"o":"m 102 350 b 153 363 165 402 167 439 l 172 539 b 175 594 190 610 225 610 l 241 610 l 241 700 l 185 700 b 123 700 79 665 74 589 l 66 455 b 63 409 53 395 11 395 l 11 305 b 53 305 63 291 66 245 l 74 111 b 79 35 123 0 185 0 l 241 0 l 241 90 l 225 90 b 190 90 175 106 172 161 l 167 261 b 165 298 153 337 102 350 z"},"9":{"x_min":0,"x_max":396,"ha":396,"o":"m 363 532 b 363 644 304 708 196 708 b 88 708 29 644 29 532 l 29 404 b 29 301 70 244 151 244 b 200 244 234 266 253 306 l 253 178 b 253 111 231 92 192 92 b 157 92 135 111 135 161 l 135 186 l 31 186 l 31 168 b 31 56 87 -8 195 -8 b 309 -8 363 56 363 174 z m 196 344 b 161 344 139 363 139 413 l 139 539 b 139 589 161 607 196 607 b 231 607 253 589 253 539 l 253 413 b 253 363 231 344 196 344 z"}," ":{"x_min":0,"x_max":155,"ha":155,"o":""},"I":{"x_min":0,"x_max":190,"ha":190,"o":"m 40 0 l 150 0 l 150 700 l 40 700 z"},"H":{"x_min":0,"x_max":427,"ha":427,"o":"m 150 300 l 275 300 l 275 0 l 387 0 l 387 700 l 275 700 l 275 400 l 150 400 l 150 700 l 40 700 l 40 0 l 150 0 z"},"4":{"x_min":0,"x_max":396,"ha":396,"o":"m 14 127 l 224 127 l 224 0 l 334 0 l 334 127 l 386 127 l 386 227 l 334 227 l 334 700 l 214 700 l 14 227 z m 115 227 l 224 486 l 224 227 z"},"~":{"x_min":0,"x_max":396,"ha":396,"o":"m 60 282 b 90 325 103 339 126 339 b 168 339 215 278 269 278 b 307 278 340 293 388 364 l 336 418 b 305 375 293 361 270 361 b 228 361 181 422 127 422 b 89 422 56 403 8 332 z"},"D":{"x_min":0,"x_max":408,"ha":408,"o":"m 40 0 l 214 0 b 324 0 378 61 378 173 l 378 527 b 378 639 324 700 214 700 l 40 700 z m 212 600 b 247 600 268 582 268 532 l 268 168 b 268 118 247 100 212 100 l 150 100 l 150 600 z"},"^":{"x_min":0,"x_max":396,"ha":396,"o":"m 20 390 l 108 390 l 198 600 l 288 390 l 376 390 l 237 700 l 159 700 z"},"0":{"x_min":0,"x_max":396,"ha":396,"o":"m 141 539 b 141 589 163 608 198 608 b 233 608 255 589 255 539 l 255 161 b 255 111 233 92 198 92 b 163 92 141 111 141 161 z m 31 168 b 31 56 90 -8 198 -8 b 306 -8 365 56 365 168 l 365 532 b 365 644 306 708 198 708 b 90 708 31 644 31 532 z"},"F":{"x_min":0,"x_max":344,"ha":344,"o":"m 150 600 l 331 600 l 331 700 l 40 700 l 40 0 l 150 0 l 150 289 l 292 289 l 292 389 l 150 389 z"},"`":{"x_min":0,"x_max":250,"ha":250,"o":"m 44 848 l 146 737 l 225 737 l 157 848 z"},"k":{"x_min":0,"x_max":414,"ha":414,"o":"m 291 0 l 404 0 l 251 388 l 404 700 l 294 700 l 150 395 l 150 700 l 40 700 l 40 0 l 150 0 l 150 215 l 184 279 z"},"u":{"x_min":0,"x_max":398,"ha":398,"o":"m 35 700 l 35 167 b 35 55 91 -9 199 -9 b 307 -9 363 55 363 167 l 363 700 l 259 700 l 259 160 b 259 110 237 92 202 92 b 167 92 145 110 145 160 l 145 700 z"},"]":{"x_min":0,"x_max":251,"ha":251,"o":"m 204 700 l 22 700 l 22 610 l 94 610 l 94 90 l 22 90 l 22 0 l 204 0 z"},"U":{"x_min":0,"x_max":398,"ha":398,"o":"m 35 700 l 35 167 b 35 55 91 -9 199 -9 b 307 -9 363 55 363 167 l 363 700 l 259 700 l 259 160 b 259 110 237 92 202 92 b 167 92 145 110 145 160 l 145 700 z"},"o":{"x_min":0,"x_max":396,"ha":396,"o":"m 141 539 b 141 589 163 608 198 608 b 233 608 255 589 255 539 l 255 161 b 255 111 233 92 198 92 b 163 92 141 111 141 161 z m 31 168 b 31 56 90 -8 198 -8 b 306 -8 365 56 365 168 l 365 532 b 365 644 306 708 198 708 b 90 708 31 644 31 532 z"},"N":{"x_min":0,"x_max":427,"ha":427,"o":"m 275 0 l 388 0 l 388 700 l 290 700 l 290 281 l 177 700 l 39 700 l 39 0 l 138 0 l 138 507 z"},"+":{"x_min":0,"x_max":396,"ha":396,"o":"m 237 524 l 159 524 l 159 389 l 25 389 l 25 311 l 159 311 l 159 174 l 237 174 l 237 311 l 371 311 l 371 389 l 237 389 z"},"G":{"x_min":0,"x_max":390,"ha":390,"o":"m 205 290 l 255 290 l 255 161 b 255 111 233 93 198 93 b 163 93 141 111 141 161 l 141 539 b 141 589 163 608 198 608 b 233 608 255 589 255 539 l 255 464 l 359 464 l 359 532 b 359 644 303 708 195 708 b 87 708 31 644 31 532 l 31 168 b 31 56 87 -8 195 -8 b 303 -8 359 56 359 168 l 359 390 l 205 390 z"},"q":{"x_min":0,"x_max":396,"ha":396,"o":"m 31 168 b 31 56 90 -8 198 -8 b 227 -8 253 -3 275 5 b 290 -25 321 -43 370 -43 l 385 -43 l 385 55 l 375 55 b 357 55 349 57 344 70 b 358 96 365 129 365 168 l 365 532 b 365 644 306 708 198 708 b 90 708 31 644 31 532 z m 141 539 b 141 589 163 608 198 608 b 233 608 255 589 255 539 l 255 161 b 255 111 233 92 198 92 b 163 92 141 111 141 161 z"},"d":{"x_min":0,"x_max":408,"ha":408,"o":"m 40 0 l 214 0 b 324 0 378 61 378 173 l 378 527 b 378 639 324 700 214 700 l 40 700 z m 212 600 b 247 600 268 582 268 532 l 268 168 b 268 118 247 100 212 100 l 150 100 l 150 600 z"},"1":{"x_min":0,"x_max":396,"ha":396,"o":"m 108 534 l 193 534 l 193 0 l 303 0 l 303 700 l 229 700 b 212 653 193 612 108 612 z"},"5":{"x_min":0,"x_max":396,"ha":396,"o":"m 35 226 l 35 168 b 35 56 91 -8 199 -8 b 307 -8 363 56 363 168 l 363 324 b 363 427 322 484 241 484 b 197 484 165 466 145 433 l 154 600 l 345 600 l 345 700 l 55 700 l 35 294 l 139 294 l 139 315 b 139 365 161 384 196 384 b 231 384 253 365 253 315 l 253 161 b 253 111 231 93 196 93 b 161 93 139 111 139 161 l 139 226 z"}}}
